<svg id="Layer_1" data-name="Layer 1" xmlns="http://www.w3.org/2000/svg" viewBox="0 0 500 500"><defs><style>.cls-1{fill:#fff;}</style></defs><title>standart-icon</title><path class="cls-1" d="M251.35,89.92A158.72,158.72,0,1,1,92.62,248.64,158.72,158.72,0,0,1,251.35,89.92Z" transform="translate(0 0)"/><path class="cls-1" d="M45,248.45c0,113.71,92.19,205.88,205.89,205.88s205.89-92.17,205.89-205.88S364.59,42.57,250.88,42.57,45,134.75,45,248.45ZM250,0C388.06,0,500,111.93,500,250S388.06,500,250,500,0,388.07,0,250,111.92,0,250,0Z" transform="translate(0 0)"/></svg>