<svg id="Layer_1" data-name="Layer 1" xmlns="http://www.w3.org/2000/svg" viewBox="0 0 500 500"><defs><style>.cls-1{fill:#fff;}</style></defs><title>taiko-icon</title><path class="cls-1" d="M110.7,248.93A141.69,141.69,0,0,0,222.76,387.46V110.37A141.69,141.69,0,0,0,110.7,248.93ZM275.58,109.17V388.66a141.66,141.66,0,0,0,0-279.49Zm0,0V388.66a141.66,141.66,0,0,0,0-279.49ZM110.7,248.93A141.69,141.69,0,0,0,222.76,387.46V110.37A141.69,141.69,0,0,0,110.7,248.93ZM250,0C111.93,0,0,111.93,0,250S111.93,500,250,500,500,388.07,500,250,388.07,0,250,0Zm2.56,445.29c-106.82,0-193.42-86.58-193.42-193.4S145.74,58.47,252.56,58.47,446,145.05,446,251.89,359.37,445.29,252.56,445.29Zm23-336.12V388.66a141.66,141.66,0,0,0,0-279.49ZM110.7,248.93A141.69,141.69,0,0,0,222.76,387.46V110.37A141.69,141.69,0,0,0,110.7,248.93Z"/></svg>