<svg width="100" height="100" viewBox="0 0 100 100" fill="none" xmlns="http://www.w3.org/2000/svg">
<path d="M100 50C100 77.6142 77.6142 100 50 100C22.3858 100 0 77.6142 0 50C0 22.3858 22.3858 0 50 0C77.6142 0 100 22.3858 100 50ZM7 50C7 73.7482 26.2518 93 50 93C73.7482 93 93 73.7482 93 50C93 26.2518 73.7482 7 50 7C26.2518 7 7 26.2518 7 50Z" fill="white"/>
<path d="M28 68C28 62.4772 32.4772 58 38 58C43.5228 58 48 62.4772 48 68C48 73.5228 43.5228 78 38 78C32.4772 78 28 73.5228 28 68Z" fill="white"/>
<path d="M28 32C28 26.4772 32.4772 22 38 22C43.5228 22 48 26.4772 48 32C48 37.5228 43.5228 42 38 42C32.4772 42 28 37.5228 28 32Z" fill="white"/>
<path d="M57 50C57 44.4772 61.4772 40 67 40C72.5228 40 77 44.4772 77 50C77 55.5228 72.5228 60 67 60C61.4772 60 57 55.5228 57 50Z" fill="white"/>
</svg>
