<svg width="100" height="100" viewBox="0 0 100 100" fill="none" xmlns="http://www.w3.org/2000/svg">
<path d="M100 50C100 77.6142 77.6142 100 50 100C22.3858 100 0 77.6142 0 50C0 22.3858 22.3858 0 50 0C77.6142 0 100 22.3858 100 50ZM7 50C7 73.7482 26.2518 93 50 93C73.7482 93 93 73.7482 93 50C93 26.2518 73.7482 7 50 7C26.2518 7 7 26.2518 7 50Z" fill="white"/>
<path d="M45 20C45 17.2386 47.2386 15 50 15C52.7614 15 55 17.2386 55 20V80C55 82.7614 52.7614 85 50 85C47.2386 85 45 82.7614 45 80V20Z" fill="white"/>
<path d="M25 32C25 29.2386 27.2386 27 30 27C32.7614 27 35 29.2386 35 32V67C35 69.7614 32.7614 72 30 72C27.2386 72 25 69.7614 25 67V32Z" fill="white"/>
<path d="M65 32C65 29.2386 67.2386 27 70 27C72.7614 27 75 29.2386 75 32V67C75 69.7614 72.7614 72 70 72C67.2386 72 65 69.7614 65 67V32Z" fill="white"/>
</svg>
