<svg width="100" height="100" viewBox="0 0 100 100" fill="none" xmlns="http://www.w3.org/2000/svg">
<path d="M100 50C100 77.6142 77.6142 100 50 100C22.3858 100 0 77.6142 0 50C0 22.3858 22.3858 0 50 0C77.6142 0 100 22.3858 100 50ZM6.99706 50C6.99706 73.7499 26.2501 93.0029 50 93.0029C73.7499 93.0029 93.0029 73.7499 93.0029 50C93.0029 26.2501 73.7499 6.99706 50 6.99706C26.2501 6.99706 6.99706 26.2501 6.99706 50Z" fill="white"/>
<path d="M82 50C82 67.6731 67.6731 82 50 82C32.3269 82 18 67.6731 18 50C18 32.3269 32.3269 18 50 18C67.6731 18 82 32.3269 82 50Z" fill="white"/>
</svg>
