<svg width="100" height="100" viewBox="0 0 100 100" fill="none" xmlns="http://www.w3.org/2000/svg">
<path d="M100 50C100 77.6142 77.6142 100 50 100C22.3858 100 0 77.6142 0 50C0 22.3858 22.3858 0 50 0C77.6142 0 100 22.3858 100 50ZM7 50C7 73.7482 26.2518 93 50 93C73.7482 93 93 73.7482 93 50C93 26.2518 73.7482 7 50 7C26.2518 7 7 26.2518 7 50Z" fill="white"/>
<path d="M54 20C62.5 21.5 65.5871 23.1607 71.2132 28.7868C76.8393 34.4129 80 42.0435 80 50C80 57.9565 76.8393 65.5871 71.2132 71.2132C65.5871 76.8393 63.5 77 54 79.5V20Z" fill="white"/>
<path d="M46 20C37.5 21.5 34.4129 23.1607 28.7868 28.7868C23.1607 34.4129 20 42.0435 20 50C20 57.9565 23.1607 65.5871 28.7868 71.2132C34.4129 76.8393 36.5 77 46 79.5V20Z" fill="white"/>
</svg>
